<?xml version="1.0" encoding="UTF-8" standalone="no"?>
<svg
   xmlns:dc="http://purl.org/dc/elements/1.1/"
   xmlns:cc="http://creativecommons.org/ns#"
   xmlns:rdf="http://www.w3.org/1999/02/22-rdf-syntax-ns#"
   xmlns:svg="http://www.w3.org/2000/svg"
   xmlns="http://www.w3.org/2000/svg"
   xmlns:sodipodi="http://sodipodi.sourceforge.net/DTD/sodipodi-0.dtd"
   xmlns:inkscape="http://www.inkscape.org/namespaces/inkscape"
   inkscape:version="1.0beta1 (32d4812, 2019-09-19)"
   sodipodi:docname="enhu.svg"
   version="1.1"
   viewBox="0 0 512 512"
   id="flag-icons-gb">
  <metadata
     id="metadata848">
    <rdf:RDF>
      <cc:Work
         rdf:about="">
        <dc:format>image/svg+xml</dc:format>
        <dc:type
           rdf:resource="http://purl.org/dc/dcmitype/StillImage" />
        <dc:title></dc:title>
      </cc:Work>
    </rdf:RDF>
  </metadata>
  <defs
     id="defs846" />
  <sodipodi:namedview
     inkscape:current-layer="flag-icons-gb"
     inkscape:window-maximized="0"
     inkscape:window-y="25"
     inkscape:window-x="0"
     inkscape:cy="560"
     inkscape:cx="400"
     inkscape:zoom="0.35"
     showgrid="false"
     id="namedview844"
     inkscape:window-height="907"
     inkscape:window-width="1600"
     inkscape:pageshadow="2"
     inkscape:pageopacity="0"
     guidetolerance="10"
     gridtolerance="10"
     objecttolerance="10"
     borderopacity="1"
     inkscape:document-rotation="0"
     bordercolor="#666666"
     pagecolor="#ffffff" />
  <path
     id="path833"
     d="M0 0h512v512H0z"
     fill="#012169" />
  <path
     id="path835"
     d="M512 0v64L322 256l190 187v69h-67L254 324 68 512H0v-68l186-187L0 74V0h62l192 188L440 0z"
     fill="#FFF" />
  <path
     id="path837"
     d="m184 324 11 34L42 512H0v-3l184-185zm124-12 54 8 150 147v45L308 312zM512 0 320 196l-4-44L466 0h46zM0 1l193 189-59-8L0 49V1z"
     fill="#C8102E" />
  <path
     id="path839"
     d="M176 0v512h160V0H176zM0 176v160h512V176H0z"
     fill="#FFF" />
  <path
     id="path841"
     d="M0 208v96h512v-96H0zM208 0v512h96V0h-96z"
     fill="#C8102E" />
  <g
     transform="matrix(0.48828125,0,0,1,262,-0.1)"
     fill-rule="evenodd"
     id="g856">
    <path
       inkscape:connector-curvature="0"
       fill="#fff"
       d="M 512,512 H 0 V 0 h 512 z"
       id="path850" />
    <path
       inkscape:connector-curvature="0"
       fill="#388d00"
       d="M 512,512 H 0 V 341.3 h 512 z"
       id="path852" />
    <path
       inkscape:connector-curvature="0"
       fill="#d43516"
       d="M 512,170.8 H 0 V 0.1 h 512 z"
       id="path854" />
  </g>
</svg>
